<?xml version="1.0" standalone="no"?>
<!DOCTYPE svg PUBLIC "-//W3C//DTD SVG 20010904//EN"
 "http://www.w3.org/TR/2001/REC-SVG-20010904/DTD/svg10.dtd">
<svg version="1.0" xmlns="http://www.w3.org/2000/svg"
 width="307.000000pt" height="307.000000pt" viewBox="0 0 307.000000 307.000000"
 preserveAspectRatio="xMidYMid meet">
<metadata>
Created by potrace 1.15, written by Peter Selinger 2001-2017
</metadata>
<g transform="translate(0.000000,307.000000) scale(0.100000,-0.100000)"
fill="#000000" stroke="none">
<path d="M1285 3005 c-247 -43 -486 -151 -680 -305 -98 -78 -237 -230 -309
-338 -108 -162 -180 -334 -223 -533 -26 -120 -26 -468 0 -588 66 -305 193
-539 411 -757 218 -218 452 -345 757 -411 120 -26 468 -26 589 0 289 62 532
191 742 395 219 213 360 470 425 772 26 122 26 468 0 590 -65 302 -206 558
-425 772 -206 201 -444 328 -732 393 -104 23 -444 30 -555 10z m593 -340 c216
-61 260 -77 279 -100 13 -14 23 -36 23 -48 0 -12 -124 -488 -275 -1057 -259
-972 -278 -1037 -306 -1062 -16 -16 -37 -28 -47 -28 -39 -1 -567 155 -584 172
-9 9 -21 30 -24 45 -9 34 539 2098 565 2127 22 26 51 36 84 30 15 -3 143 -39
285 -79z"/>
<path d="M1659 2456 c-58 -21 -107 -64 -135 -122 -23 -46 -26 -64 -22 -127 4
-93 40 -157 112 -201 56 -35 149 -46 211 -26 48 16 110 72 138 124 30 58 30
174 0 231 -58 109 -190 162 -304 121z m136 -47 c56 -15 119 -83 134 -144 33
-130 -83 -260 -214 -241 -113 17 -190 144 -155 252 22 67 61 106 129 130 45
16 56 17 106 3z"/>
<path d="M1669 2281 c-38 -39 -39 -87 -3 -130 22 -26 33 -31 71 -31 36 0 50 6
75 30 27 28 30 36 25 73 -12 85 -107 118 -168 58z"/>
<path d="M1445 1748 c-10 -28 -244 -912 -242 -914 1 -2 73 -23 160 -47 106
-30 160 -41 162 -33 13 39 245 920 243 921 -5 5 -297 85 -308 85 -6 0 -13 -6
-15 -12z m253 -113 c5 -5 -208 -807 -217 -816 -5 -6 -198 45 -208 54 -3 4 193
756 212 813 2 8 36 2 106 -17 56 -16 104 -31 107 -34z"/>
</g>
</svg>
